<svg id="레이어_1" data-name="레이어 1" xmlns="http://www.w3.org/2000/svg" viewBox="0 0 28 28"><defs><style>.cls-1{fill:#fff;}.cls-2{fill:#ccc;}.cls-3{fill:#999;}</style></defs><rect class="cls-1" x="0.5" y="0.5" width="27" height="27" rx="3.5"/><path class="cls-2" d="M24,1a3,3,0,0,1,3,3V24a3,3,0,0,1-3,3H4a3,3,0,0,1-3-3V4A3,3,0,0,1,4,1H24m0-1H4A4,4,0,0,0,0,4V24a4,4,0,0,0,4,4H24a4,4,0,0,0,4-4V4a4,4,0,0,0-4-4Z"/><polygon class="cls-3" points="9.19 14 15.4 7.79 16.81 9.21 12.02 14 16.81 18.79 15.4 20.21 9.19 14"/></svg>