<svg xmlns="http://www.w3.org/2000/svg" width="20" height="20" viewBox="0 0 20 20">
    <defs>
        <clipPath id="a">
            <path data-name="사각형 443" style="fill:none" d="M0 0h20v20H0z"/>
        </clipPath>
    </defs>
    <path data-name="패스 57" d="M12.072 9.5a1 1 0 0 0 0 1.414l2.121 2.122a1 1 0 0 0 1.414 0l2.122-2.122A1 1 0 1 0 16.315 9.5l-.324.323A7 7 0 0 0 8.85 3 7.093 7.093 0 0 0 2 9.887a7 7 0 0 0 9.519 6.645.994.994 0 0 0 .473-1.432v-.005a.988.988 0 0 0-1.206-.423 5.064 5.064 0 0 1-4.645-.554 4.837 4.837 0 0 1-1.961-2.766 5.027 5.027 0 0 1 6.768-5.981A4.921 4.921 0 0 1 14 10v.014l-.514-.514a1 1 0 0 0-1.414 0" style="clip-path:url(#a)"/>
</svg>
