<svg xmlns="http://www.w3.org/2000/svg" width="228" height="50" viewBox="0 0 228 50">
    <defs>
        <clipPath id="clip-path">
            <path id="사각형_643" data-name="사각형 643" transform="translate(.625 .292)" style="fill:none" d="M0 0h228v50H0z"/>
        </clipPath>
        <style>
            .cls-3{fill:#008837}
        </style>
    </defs>
    <g id="logo" transform="translate(-.625 -.292)" style="clip-path:url(#clip-path)">
        <path id="패스_105" data-name="패스 105" d="M55.082 11.858V6.511h-6.174v-5.13h-6.57v5.13h-6.244v5.347h5.993S35.435 21.545 35 22.176c.553.374 4.192 2.819 4.727 3.183l5.975-8.683s5.312 7.885 5.734 8.517c.549-.388 4.044-2.875 4.584-3.247l-6.933-10.088z" transform="translate(33.784 1.368)"/>
        <path id="패스_106" data-name="패스 106" d="M48.738 15.931h-6.085v14.737h17.965v-5.587h-11.88z" transform="translate(41.146 15.625)"/>
        <path id="패스_107" data-name="패스 107" d="M51.389 24h6.162V3.811h-6.162v7.349h-5.787v5.668h5.787z" transform="translate(43.984 3.748)"/>
        <path id="패스_108" data-name="패스 108" d="M74.849 9.4V3.972H57.18V9.4h5.243s-6.1 9.893-6.5 10.532c.553.352 4.225 2.675 4.794 3.035.389-.647 5.29-8.9 5.29-8.9l5.3 8.735c.565-.362 4.111-2.681 4.657-3.029C75.575 19.153 69.6 9.4 69.6 9.4z" transform="translate(53.913 3.908)"/>
        <path id="패스_109" data-name="패스 109" d="M74.462 3.81H68.45v20.112h6.013v-7.177h4.476v7.177h5.926V3.81h-5.926v7.264h-4.477z" transform="translate(65.971 3.749)"/>
        <path id="패스_110" data-name="패스 110" d="M97.378 13.65V6.6H83.459V.858h20.02V13.65z" transform="translate(80.415 .858)"/>
        <path id="패스_111" data-name="패스 111" d="M93.753 8.717v4.817h3.385V8.695h5.838v4.839h9.624V19.2H80.63v-5.666h7.353V8.717z" transform="translate(77.692 8.535)"/>
        <path id="패스_112" data-name="패스 112" d="M114.959 32.845h5.179V17.791h-15.766v5.733h10.587z" transform="translate(100.541 17.447)"/>
        <path id="패스_113" data-name="패스 113" d="M113.163 19.158a9.822 9.822 0 0 0 9.767-9.618 9.77 9.77 0 0 0-19.535 0 9.83 9.83 0 0 0 9.769 9.62m-.08-13.375a3.931 3.931 0 0 1 3.844 3.8 3.874 3.874 0 0 1-3.844 3.8 3.7 3.7 0 0 1-3.687-3.8 3.747 3.747 0 0 1 3.687-3.8" transform="translate(99.599 .017)"/>
        <path id="패스_114" data-name="패스 114" d="M108.378 22.526h5.922v-5.747h3.848v5.747h5.922v-5.747h8.061v-5.656H100.17v5.656h8.208z" transform="translate(96.497 10.914)"/>
        <path id="패스_115" data-name="패스 115" class="cls-3" d="m1.49 8.423.547.222.549.216.084.028a4.586 4.586 0 0 0 1.43.243l1.146.026.555.016s.479.044.63.055a2.333 2.333 0 0 0 .449.113 6.573 6.573 0 0 0 2.055-.321l.261-.063c1.562-.265 1.782-.5 1.894-.624a2.305 2.305 0 0 0 .671-1.223c.006-.053.012-.061.069-.143a1.035 1.035 0 0 0 .241-.653l-.012-1.206.065-.406.082-.733a1.634 1.634 0 0 0-.249-.808l-.039-.069c0-.028.006-.065.006-.1a2.4 2.4 0 0 0-.175-.927.591.591 0 0 1-.031-.218 1.139 1.139 0 0 0 .006-.143 1.428 1.428 0 0 0-.151-.689A2.633 2.633 0 0 0 9.962.1L9.9.089h-.061a17.787 17.787 0 0 0-2.539 0l-.379.04-.721.13-.85.222A6.99 6.99 0 0 1 4.1.724l-.673.1a3.111 3.111 0 0 0-2.019 1.599l-.226.35a1.178 1.178 0 0 0-.243.727l-.026.424-.061.533a1.605 1.605 0 0 0-.077.459c0 .083.008.162.01.216a.254.254 0 0 1 0 .075.736.736 0 0 1-.145.378l-.137.2a1.318 1.318 0 0 0-.3.849 2.066 2.066 0 0 0 .024.346A1.564 1.564 0 0 0 1.49 8.423" transform="translate(.296 .055)"/>
        <path id="패스_116" data-name="패스 116" class="cls-3" d="M7.417 4.3a4.649 4.649 0 0 0 .1.879c.01.117-.035.509-.057.75l-.06.732A1.789 1.789 0 0 0 7.839 8.1a2.866 2.866 0 0 0 2 .919 4.449 4.449 0 0 1 .979.02l.544.042 1.372.04h.447l.85.063a13.16 13.16 0 0 0 2.423.077 1.5 1.5 0 0 1 .436 0c.467.049.716-.049 1.232-.5a3.657 3.657 0 0 0 1.3-1.845 3.125 3.125 0 0 0 .11-.808l.075-.384a3.144 3.144 0 0 0 .122-.687 1.265 1.265 0 0 0-.041-.313l-.238-.514a1.847 1.847 0 0 1-.165-.356c.012-.026.088-.279.088-.279A2.909 2.909 0 0 0 19.6 2.6a1.365 1.365 0 0 0-.234-.8l-.19-.38a1.306 1.306 0 0 0-.6-.736l-.157-.1a2.223 2.223 0 0 0-1.4-.418 1.638 1.638 0 0 1-.5-.053l-.743-.084L14.358.1l-1.515.083-.389-.053a2.359 2.359 0 0 0-.916-.077c-.628.047-1.511.041-1.519.041H9.95l-.15.04-.268.055a2.4 2.4 0 0 0-1.246.5L8.064.86a1.318 1.318 0 0 0-.614 1.034l-.022.158a4.472 4.472 0 0 0-.071 1.507l.059.742" transform="translate(7.143 .045)"/>
        <path id="패스_117" data-name="패스 117" class="cls-3" d="M14.827 7.318c.137.531.359 1.419 1.148 1.518a.891.891 0 0 1 .283.109 2.377 2.377 0 0 0 1.334.275 5.625 5.625 0 0 1 1.168.1 6.034 6.034 0 0 0 1.332.1l.553-.01a4.745 4.745 0 0 0 1.179-.1l.673-.1c.587-.071 1.189-.15 1.464-.729l.106-.212A2.5 2.5 0 0 0 24.445 7l.088-.934.1-1.182-.051-.8-.022-.257a1.252 1.252 0 0 0-.165-.6l-.008-.012c.012-.036.045-.113.045-.113a1.792 1.792 0 0 0 .171-.657 1.237 1.237 0 0 0-.363-.855l-.09-.156a1.381 1.381 0 0 0-1.173-.843L20.834.229 20.657.2a5.072 5.072 0 0 0-1.793-.053c-.62.1-1.448.15-1.458.15L17.294.3l-.153.069-.09-.089-.436.283-.893.6a2.309 2.309 0 0 0-.838 1.416 1.267 1.267 0 0 0-.031.289 4.607 4.607 0 0 0 .078.7 4.37 4.37 0 0 1 .069.58c0 .02-.006.04-.006.053a2.541 2.541 0 0 0-.247 1 1.41 1.41 0 0 0 .039.37l-.047.267a1.737 1.737 0 0 0 0 1.164z" transform="translate(14.183 .103)"/>
        <path id="패스_118" data-name="패스 118" class="cls-3" d="M20.912 7.916a1.184 1.184 0 0 0 .569 1.043 5.84 5.84 0 0 0 1.99.58 2.145 2.145 0 0 0 1.891-.439 2.457 2.457 0 0 0 .989-2 5.556 5.556 0 0 0 0-1.366l-.063-.687v-.792a4.115 4.115 0 0 0-.351-2.087C25.372.918 25.147.4 24.483.276l-.1-.024A4.113 4.113 0 0 0 23 .14l.124-.01h-.555l-.12.057A1.823 1.823 0 0 0 21.145 1.5l-.022.141a2.524 2.524 0 0 0 .031 1.453 1.615 1.615 0 0 1-.047.661l-.092.752L21 6.146l-.082.295a1.734 1.734 0 0 0-.043 1.249.7.7 0 0 1 .035.226" transform="translate(20.09 .13)"/>
        <path id="패스_119" data-name="패스 119" class="cls-3" d="m24.956 5.068.014.079.159 1.332.006.348v.17a2.731 2.731 0 0 0 .179.994l.086.234a4.455 4.455 0 0 1 .29.98s.108.37.139.471l.012.269-.014.39a6.35 6.35 0 0 0-.01.331 1.152 1.152 0 0 0 .316.978.751.751 0 0 0 .653.152c.646-.154.728-.734.8-1.255l.035-.188.053-.556a2.829 2.829 0 0 1 .108-.643A2.186 2.186 0 0 1 28 8.6a4.615 4.615 0 0 0 .367-.853 6.448 6.448 0 0 0 .233-1.154 4.343 4.343 0 0 1 .19-.885l.177-.418a1.6 1.6 0 0 0 .027-1.619l-.181-.485a2.854 2.854 0 0 0-.391-.879c0-.008-.292-.546-.292-.546a1.856 1.856 0 0 0-.477-.693A4.239 4.239 0 0 0 26.45.38l-.116-.033s-.2.01-.249.018h-.024c-.65-.16-.973.291-1.225.721l-.073.117a2.14 2.14 0 0 0-.414 1.095 2.337 2.337 0 0 0 .173.806 11.9 11.9 0 0 1 .434 1.97" transform="translate(23.532 .337)"/>
        <path id="패스_120" data-name="패스 120" class="cls-3" d="M7.935 7.756a12.141 12.141 0 0 0-1.7.168l-.163.03-.177.146-.306.255A5.387 5.387 0 0 0 4.5 9.409a7.683 7.683 0 0 0-1.37 2.546.647.647 0 0 1-.192.291c-.451.471-.63.946-.343 2.223l.214 1.156a3 3 0 0 0 1.03 2.12 7.307 7.307 0 0 0 3.031 1.838c1.454.529 1.509.556 2.035.558l1 .012.449.059a2.471 2.471 0 0 0 2.055-.386 5.069 5.069 0 0 1 1-.436 2.663 2.663 0 0 0 1.839-1.416 3.261 3.261 0 0 1 .387-.628 3.08 3.08 0 0 0 .608-1.835 9.808 9.808 0 0 0-.065-4.086l-.137-.489a2.216 2.216 0 0 0-1.2-1.584 1.977 1.977 0 0 1-.447-.378c-.308-.341-.557-.515-1.635-.812a3.088 3.088 0 0 1-.932-.382 2.312 2.312 0 0 0-1.741-.245L8.662 7.7z" transform="translate(2.462 7.358)"/>
        <path id="패스_121" data-name="패스 121" class="cls-3" d="M30.41 23.534a2.548 2.548 0 0 0-.912-1.986l-.047-.055a2.16 2.16 0 0 0-1.792-.833l-.754-.079a3.2 3.2 0 0 0-.938-.006l-.591.048a11.81 11.81 0 0 0-1.321.16l-.432.1a3.063 3.063 0 0 1-1.193.03l-.742-.089a3.385 3.385 0 0 0-1.433.079l-.756.137-.828.154a1.823 1.823 0 0 0-1.27.768l-.216.249-.061.077a3.285 3.285 0 0 0-.33 1.158 1.788 1.788 0 0 0 .192 1.32A7.124 7.124 0 0 1 17.4 25.8c.387 1.176.789 1.41 1.391 1.661l.326.145a5.1 5.1 0 0 0 2.867.176l.11-.016a2.257 2.257 0 0 1 .534-.065l.528.024 1.077.067c.559.046 1.248.1 2.135.111a3.623 3.623 0 0 0 2.6-.82 3.571 3.571 0 0 0 1.317-1.823 2 2 0 0 0 .175-1.271z" transform="translate(16.22 20.142)"/>
        <path id="패스_122" data-name="패스 122" class="cls-3" d="m52.576 28.148-.047-1.192a1.54 1.54 0 0 0-.563-1.414.356.356 0 0 1-.153-.226l-.061-.188s-.041-.137-.059-.184l.194-.372.426-.772-.4-.362a.265.265 0 0 1-.014-.119 4.41 4.41 0 0 1 .057-.535l.094-.984a2.6 2.6 0 0 0-.406-1.5 3.874 3.874 0 0 1-.465-1.313l-.3-1.338a6.625 6.625 0 0 1-.235-1.378c-.031-.335-.106-1.029-.689-1.164a.775.775 0 0 0-.858.438l-.049.075-.21.788-.338 1.321a16.394 16.394 0 0 0-.263 1.673 5.452 5.452 0 0 1-.13.855l-.208.748-.131.5c-.003.015-.043.093-.043.093v.034c-.2.9-.294 1.227-.334 1.346a1.31 1.31 0 0 1-.269.154 4.91 4.91 0 0 1-.363-.061.333.333 0 0 1-.029-.059l-.184-.315-.442-.01c-.322-.3-.453-.467-.453-.772a.943.943 0 0 1 .008-.147l.051-.685a4.1 4.1 0 0 1 .2-1.227 3.023 3.023 0 0 1 .332-.792 2.917 2.917 0 0 0 .414-1.162l.434-2.843c.086-.535.141-1.2.186-1.833.061-.7.114-1.406.216-1.964a10.772 10.772 0 0 0 .143-1.73 5.556 5.556 0 0 0-.235-1.951 1.394 1.394 0 0 1-.059-.424 1.2 1.2 0 0 0-1.018-1.317l-.347-.055a4.213 4.213 0 0 0-2.429.093.6.6 0 0 1-.422.077 1.377 1.377 0 0 0-.881.186A2.087 2.087 0 0 0 41.1 8.4a14.025 14.025 0 0 1-.016 2.2 14.341 14.341 0 0 0-.031 1.738 16.9 16.9 0 0 1-.392 3.655 13.458 13.458 0 0 1-1.011 2.51 9.987 9.987 0 0 1-1.85 2.037l-.975.738-.338.232-.324.228a4.143 4.143 0 0 1-1.272.721l-.29.071c-.555.146-.844.188-1.107-.091-.4-.41-.877-1.188-.54-1.635a2.023 2.023 0 0 1 1.329-.964l.538-.194a5.383 5.383 0 0 0 2.164-1.4 11.822 11.822 0 0 0 1.444-1.94 6.338 6.338 0 0 0 .428-2.91l.041-.923a10.771 10.771 0 0 0-.224-3.209l-.11-.511a2.827 2.827 0 0 0-.779-1.726l-.214-.236a1.95 1.95 0 0 0-1.8-.837 2.453 2.453 0 0 1-.875-.044l-.414-.079-.32-.055a3.715 3.715 0 0 0-2.058.02l-.51.253-.026.014h-.128c-.467.02-1.57.057-1.923 1.014a7.344 7.344 0 0 0-.522 2.8l-.027 1.261c-.022.727-.047 1.352 0 2.146a9.061 9.061 0 0 1-.031 1.338 4.835 4.835 0 0 0 .045 1.536 8.257 8.257 0 0 1 .155 2.5 8.1 8.1 0 0 0 .086 1.6 4.935 4.935 0 0 1 .063 1.172l.006-.01a2.787 2.787 0 0 0-.226.837 2.932 2.932 0 0 1-.051.291c-.112.046-.275.107-.275.107a2.436 2.436 0 0 1-.967.15c-.714.048-.746.008-1.069-.37l-.165-.188c-.3-.346-.3-.346-.241-1.018a7.417 7.417 0 0 0 .01-1.14 6.348 6.348 0 0 1 .092-1.724 6.964 6.964 0 0 0 .126-1.76 16.87 16.87 0 0 1 .071-2.1 15.143 15.143 0 0 0 .047-4.07 4.174 4.174 0 0 1-.047-.867 2.967 2.967 0 0 0-.224-1.293 2.114 2.114 0 0 1-.12-.665 1.309 1.309 0 0 0-1.011-1.408l-.485-.166a4.161 4.161 0 0 0-1.807-.321 1.915 1.915 0 0 1-.5-.051 2.71 2.71 0 0 0-1.317.046 8 8 0 0 1-2.045-.042 4.318 4.318 0 0 0-1.164-.044h.012l-.075-.006-.122.012-.4.071a1.454 1.454 0 0 0-.967.376 1.035 1.035 0 0 0-.314.752c-.012.913.573 1.174 1.134 1.419l.075.032a7.917 7.917 0 0 1 1.886 1.075 2.527 2.527 0 0 1 1.05 1.433l.3.849a4.784 4.784 0 0 1 .451 1.651l.049.695c.043.645.088 1.263.086 1.819 0 .208-.012.418-.029.606a17.384 17.384 0 0 1-.856 3.227 14.705 14.705 0 0 1-1.713 2.112l-.763.616a6.114 6.114 0 0 1-1.095.835 11 11 0 0 1-3.458.988 9.551 9.551 0 0 0-1.3.1 3.164 3.164 0 0 1-1.319.022l-1.12-.354a12.648 12.648 0 0 1-1.951-.675 10.089 10.089 0 0 1-2.07-1.319l-.383-.489a3.844 3.844 0 0 0-.551-.651 3.518 3.518 0 0 0-1.69-.857l-.771-.119s.037.879.037.925l-.153 1.647a2.769 2.769 0 0 0-.665 1.386 3.446 3.446 0 0 0-.069.533 1.121 1.121 0 0 0 .01.17 6.886 6.886 0 0 1-.251.774 10.978 10.978 0 0 0-.408 1.554l-.027.137.066.33.234 1a5.252 5.252 0 0 1 .122 1.554v.184a14.673 14.673 0 0 0 .112 2.475.749.749 0 0 1 .006.164A4.775 4.775 0 0 1 .688 34l-.161.443-.2.507A3.554 3.554 0 0 0 0 36.341a4.638 4.638 0 0 0 .206 1.319l.09.329a6.783 6.783 0 0 0 1.385 2.956 1.991 1.991 0 0 1 .287.4 3.665 3.665 0 0 0 1.719 1.483 13.371 13.371 0 0 0 3.95 1.156 2.428 2.428 0 0 1 .573.083 4.83 4.83 0 0 0 1.627.137l4.125-.279a17.963 17.963 0 0 1 3.495.17 5.525 5.525 0 0 0 2.675.02 2.749 2.749 0 0 1 .549-.073 3.162 3.162 0 0 0 .977-.057 2.612 2.612 0 0 1 1.146-.02 5.423 5.423 0 0 0 2.785.061 8.968 8.968 0 0 1 1.433-.172l.522-.042h.053s.128-.012.188-.016 2.779-.024 2.779-.024l.188-.289a5.139 5.139 0 0 0 1.058-2.572 1.982 1.982 0 0 0-.031-.3 1.986 1.986 0 0 0 .018-.259 3.128 3.128 0 0 0-.365-1.416A11.951 11.951 0 0 1 31 37.275l-.181-.8-.014-.049a24.5 24.5 0 0 1-.683-2.918 24.027 24.027 0 0 0-.422-3.183 1.5 1.5 0 0 1 .416-1.142c.155-.182.31-.366.985-.162.351.117.351.117.457 1.1l.014.17c.19 1.8.4 2.687 1.071 2.934a1.207 1.207 0 0 1 .249.2 1.687 1.687 0 0 0 1.429.6 8.149 8.149 0 0 0 1.9-.527 10.391 10.391 0 0 1 2.763-.19h.067l.461.008a12.989 12.989 0 0 0 2.616-.061 10.972 10.972 0 0 1 1.637-.057 2.906 2.906 0 0 0 1.89-.879 2.688 2.688 0 0 0 .271-1.489 2.819 2.819 0 0 0-.19-.952l-.1-.352-.128-.526a1.959 1.959 0 0 1-.1-.424v-.006a.335.335 0 0 0 .008-.089 4.823 4.823 0 0 0-.163-1.049l-.014-.089-.157-.485a.848.848 0 0 1-.09-.313c0-.016 0-.03.006-.036l.149-.319c.1-.216.1-.216.19-.281l.253-.23c.014-.006.171-.087.171-.087l.33-.109.5-.15.073-.18a3.435 3.435 0 0 1 .347.259l-.035-.044s.155.152.216.214v.02l-.024.206.037.18.063.443.1.671.124.717.022.247.022.4a5.154 5.154 0 0 0 .2 1.277.886.886 0 0 1 .043.22 1.339 1.339 0 0 1-.033.168 2.6 2.6 0 0 0-.11.762l.024.8.037 1.435v1.98l.047 1 .073 1.251s.029.637.033.655l-.057.137a12.637 12.637 0 0 0-.573 3.554v.224a1.481 1.481 0 0 0 1.262 1.406l.075.02h.078a3.648 3.648 0 0 0 2.445-1.19l.09-.091.073-.178.243-.57a4.355 4.355 0 0 0 .44-1.859 3.889 3.889 0 0 1 .128-.847 3.988 3.988 0 0 0 .131-1.095c0-.372-.018-.784-.041-1.243a27.218 27.218 0 0 1-.043-1.653c0-.208.01-.41.018-.608.018-.289.024-.525.024-.717a5.9 5.9 0 0 0-.047-.873 2.385 2.385 0 0 1-.02-.247 3.345 3.345 0 0 1 .061-.531 2.494 2.494 0 0 1 .186-.748 3.073 3.073 0 0 0 .255-1.055 4.635 4.635 0 0 0 .037-.628c0-.368-.024-.717-.045-1.083" transform="translate(.1 5.508)"/>
        <path id="패스_123" data-name="패스 123" class="cls-3" d="M.6 8.395a.119.119 0 0 0-.012.048l-.088.3a2.92 2.92 0 0 0-.191.957 2.729 2.729 0 0 0 .077.645l.234.709.133.443a2.079 2.079 0 0 0 .326.758l.014.018c0 .016.01.087.01.3L.98 13.839l.732.01a1.564 1.564 0 0 0 1.45-1.016l.255-.436a2.786 2.786 0 0 0 .43-.936 1 1 0 0 1 .322-.56 2.024 2.024 0 0 0 .44-.586 2.654 2.654 0 0 1 .671-.649l.81-.707a1.981 1.981 0 0 1 .761-.259 4.848 4.848 0 0 0 1.062-.323l.434-.2a2.268 2.268 0 0 0 .873-.59.956.956 0 0 0 .28-.987c-.23-.713-1.213-.917-1.509-.962a3.56 3.56 0 0 0-.822-.018 5.035 5.035 0 0 1-.962 0l-1.66-.1a4.4 4.4 0 0 0-1.173.026 2.536 2.536 0 0 1-.706.012 2.787 2.787 0 0 0-1.521.287l-.2.081-.088.01L.679 6a1.355 1.355 0 0 0-.508.523l-.143.249L.4 7.963l.19.432" transform="translate(.126 5.401)"/>
    </g>
</svg>
